<svg xmlns="http://www.w3.org/2000/svg" viewBox="0 0 300 360" width="300" height="360" role="img">
<defs><clipPath id="g"><path d="M118,44 L74,58 L28,192 L74,212 L96,140 L96,318 Q150,334 204,318 L204,140 L226,212 L272,192 L226,58 L182,44 C176,76 124,76 118,44 Z"/></clipPath><linearGradient id="sh" x1="0" y1="0" x2="1" y2="0"><stop offset="0" stop-color="#000" stop-opacity=".14"/><stop offset=".28" stop-color="#000" stop-opacity="0"/><stop offset=".72" stop-color="#000" stop-opacity="0"/><stop offset="1" stop-color="#000" stop-opacity=".16"/></linearGradient></defs>
<g clip-path="url(#g)">
<path d="M118,44 L74,58 L28,192 L74,212 L96,140 L96,318 Q150,334 204,318 L204,140 L226,212 L272,192 L226,58 L182,44 C176,76 124,76 118,44 Z" fill="#fff"/>
<rect x="0" y="0" width="300" height="360" fill="#7d2b34"/><g stroke="#1e2a44" stroke-width="18" opacity=".85"><path d="M20,0 L20,360"/><path d="M66,0 L66,360"/><path d="M112,0 L112,360"/><path d="M158,0 L158,360"/><path d="M204,0 L204,360"/><path d="M250,0 L250,360"/><path d="M296,0 L296,360"/><path d="M0,24 L300,24"/><path d="M0,70 L300,70"/><path d="M0,116 L300,116"/><path d="M0,162 L300,162"/><path d="M0,208 L300,208"/><path d="M0,254 L300,254"/><path d="M0,300 L300,300"/><path d="M0,346 L300,346"/></g><g stroke="#f0d9b5" stroke-width="3" opacity=".75"><path d="M43,0 L43,360"/><path d="M89,0 L89,360"/><path d="M135,0 L135,360"/><path d="M181,0 L181,360"/><path d="M227,0 L227,360"/><path d="M273,0 L273,360"/><path d="M0,47 L300,47"/><path d="M0,93 L300,93"/><path d="M0,139 L300,139"/><path d="M0,185 L300,185"/><path d="M0,231 L300,231"/><path d="M0,277 L300,277"/><path d="M0,323 L300,323"/></g><rect x="0" y="0" width="300" height="360" fill="url(#sh)"/>
</g>
<path d="M118,44 L74,58 L28,192 L74,212 L96,140 L96,318 Q150,334 204,318 L204,140 L226,212 L272,192 L226,58 L182,44 C176,76 124,76 118,44 Z" fill="none" stroke="rgba(0,0,0,.35)" stroke-width="2.4" stroke-linejoin="round"/>
<path d="M118,44 L150,86 L182,44" fill="none" stroke="rgba(0,0,0,.4)" stroke-width="2.4"/><path d="M118,44 L134,52 L150,86 Z" fill="rgba(255,255,255,.28)" stroke="rgba(0,0,0,.4)" stroke-width="2"/><path d="M182,44 L166,52 L150,86 Z" fill="rgba(255,255,255,.28)" stroke="rgba(0,0,0,.4)" stroke-width="2"/><path d="M150,86 L150,320" stroke="rgba(0,0,0,.4)" stroke-width="2" fill="none" stroke-dasharray="6 5"/><g fill="rgba(255,255,255,.85)" stroke="rgba(0,0,0,.3)" stroke-width="1.2"><circle cx="150" cy="120" r="4"/><circle cx="150" cy="168" r="4"/><circle cx="150" cy="216" r="4"/><circle cx="150" cy="264" r="4"/></g>
</svg>
