<svg xmlns="http://www.w3.org/2000/svg" viewBox="0 0 300 360" width="300" height="360" role="img">
<defs><clipPath id="g"><path d="M118,44 L74,58 L34,104 L72,148 L96,124 L96,318 Q150,334 204,318 L204,124 L228,148 L266,104 L226,58 L182,44 C176,76 124,76 118,44 Z"/></clipPath><linearGradient id="sh" x1="0" y1="0" x2="1" y2="0"><stop offset="0" stop-color="#000" stop-opacity=".14"/><stop offset=".28" stop-color="#000" stop-opacity="0"/><stop offset=".72" stop-color="#000" stop-opacity="0"/><stop offset="1" stop-color="#000" stop-opacity=".16"/></linearGradient></defs>
<g clip-path="url(#g)">
<path d="M118,44 L74,58 L34,104 L72,148 L96,124 L96,318 Q150,334 204,318 L204,124 L228,148 L266,104 L226,58 L182,44 C176,76 124,76 118,44 Z" fill="#fff"/>
<rect x="0" y="0" width="300" height="360" fill="#e2622c"/><g transform="rotate(-6 150 190)"><text x="150" y="196" text-anchor="middle" font-family="Arial Black,Arial" font-size="42" font-weight="900" fill="#fdfdfd" letter-spacing="2">courage</text><path d="M74,214 q76,22 152,0" stroke="#fdfdfd" stroke-width="7" fill="none" stroke-linecap="round"/></g><rect x="0" y="0" width="300" height="360" fill="url(#sh)"/>
</g>
<path d="M118,44 L74,58 L34,104 L72,148 L96,124 L96,318 Q150,334 204,318 L204,124 L228,148 L266,104 L226,58 L182,44 C176,76 124,76 118,44 Z" fill="none" stroke="rgba(0,0,0,.22)" stroke-width="2.4" stroke-linejoin="round"/>
<path d="M118,44 C124,76 176,76 182,44" fill="none" stroke="rgba(0,0,0,.35)" stroke-width="2.4"/><path d="M118,44 C124,72 176,72 182,44" fill="none" stroke="rgba(0,0,0,.35)" stroke-width="6" stroke-opacity=".5"/>
</svg>
